Land_normalized_Precision Landing16_filtered_grf
version=1
nRows=12
nColumns=37
inDegrees=yes
endheader
time		1_ground_force_vx		1_ground_force_vy		1_ground_force_vz		1_ground_force_px		1_ground_force_py		1_ground_force_pz		1_ground_torque_x		1_ground_torque_y		1_ground_torque_z		2_ground_force_vx		2_ground_force_vy		2_ground_force_vz		2_ground_force_px		2_ground_force_py		2_ground_force_pz		2_ground_torque_x		2_ground_torque_y		2_ground_torque_z		3_ground_force_vx		3_ground_force_vy		3_ground_force_vz		3_ground_force_px		3_ground_force_py		3_ground_force_pz		3_ground_torque_x		3_ground_torque_y		3_ground_torque_z		4_ground_force_vx		4_ground_force_vy		4_ground_force_vz		4_ground_force_px		4_ground_force_py		4_ground_force_pz		4_ground_torque_x		4_ground_torque_y		4_ground_torque_z		
1.282833		-7.217729		726.440090		131.182320		0.074995		0.000000		0.329466		-0.123374		12.417658		2.242398		26.890720		630.053169		86.855230		-0.144172		0.000000		0.342474		0.651438		15.262739		2.104103		5.490566		-0.924816		-0.862510		0.353636		1.255183		1.891162		-0.002571		0.000433		0.000404		-18.676755		0.714856		-2.333025		-0.288777		1.264816		1.900979		0.001360		-0.000052		0.000170		
1.286141		-4.400317		730.900737		124.031802		0.075354		0.000000		0.330076		-0.076674		12.736299		2.161302		24.975206		643.315499		80.844355		-0.143556		0.000000		0.343391		0.552284		14.225108		1.787727		5.307714		-0.852939		-0.705149		0.353623		1.255181		1.891142		-0.001259		0.000202		0.000167		-18.762794		0.674481		-2.285969		-0.288775		1.264810		1.900963		0.004483		-0.000161		0.000546		
1.289449		-1.625130		734.239677		116.685023		0.075681		0.000000		0.330658		-0.028830		13.026510		2.070162		22.589129		656.349829		74.203520		-0.142924		0.000000		0.344343		0.449487		13.059875		1.476520		5.097718		-0.740034		-0.581630		0.353606		1.255173		1.891126		0.000947		-0.000138		-0.000108		-18.865113		0.677356		-2.322553		-0.288789		1.264806		1.900958		0.008437		-0.000303		0.001039		
1.292758		0.966321		736.060198		109.495976		0.076030		0.000000		0.331274		0.017439		13.280346		1.975566		19.818497		668.714283		67.406055		-0.142326		0.000000		0.345276		0.351122		11.846216		1.194187		4.962439		-0.621787		-0.504121		0.353594		1.255162		1.891115		0.009807		0.015903		0.041543		-18.967661		0.718334		-2.427295		-0.288810		1.264810		1.900964		0.012313		-0.000466		0.001576		
1.296066		3.280165		736.192839		102.814885		0.076428		0.000000		0.331919		0.060083		13.484495		1.883207		16.841115		680.226905		61.052381		-0.141822		0.000000		0.346131		0.264657		10.689087		0.959411		4.973400		-0.523641		-0.476801		0.353592		1.255148		1.891111		0.011244		0.011938		0.043513		-19.054110		0.787293		-2.539123		-0.288834		1.264818		1.900979		0.015449		-0.000638		0.002059		
1.299374		5.215105		734.568462		96.935787		0.076850		0.000000		0.332504		0.096708		13.621491		1.797527		13.781091		690.813547		55.531983		-0.141452		0.000000		0.346878		0.192703		9.658621		0.776463		5.136951		-0.456164		-0.503404		0.353596		1.255133		1.891113		0.006932		-0.000615		-0.000679		-19.116822		0.870307		-2.594892		-0.288855		1.264829		1.901001		0.017698		-0.000806		0.002402		
1.302682		6.673000		731.229778		92.053827		0.077226		0.000000		0.332916		0.124855		13.681597		1.722361		10.640716		700.346108		50.801719		-0.141206		0.000000		0.347541		0.132972		8.750266		0.634764		5.387148		-0.423269		-0.576497		0.353602		1.255118		1.891120		0.007066		-0.000555		-0.000756		-19.157624		0.945433		-2.571636		-0.288872		1.264838		1.901027		0.019203		-0.000948		0.002578		
1.305990		7.594770		726.326108		88.253337		0.077508		0.000000		0.333107		0.142825		13.659117		1.659672		7.380294		708.572681		46.500278		-0.141064		0.000000		0.348171		0.082340		7.905134		0.518779		5.623942		-0.431749		-0.670097		0.353601		1.255109		1.891133		0.006454		-0.000495		-0.000769		-19.179965		0.983840		-2.500429		-0.288885		1.264843		1.901054		0.019959		-0.001024		0.002602		
1.309298		7.959320		720.075216		85.534180		0.077704		0.000000		0.333102		0.149817		13.553902		1.610001		4.086244		715.155403		42.278217		-0.141029		0.000000		0.348823		0.040420		7.070269		0.418008		5.764234		-0.490676		-0.748744		0.353587		1.255106		1.891150		0.005571		-0.000474		-0.000724		-19.179788		0.959462		-2.444772		-0.288900		1.264844		1.901080		0.019573		-0.000979		0.002495		
1.312606		7.775021		712.715178		83.813399		0.077852		0.000000		0.332965		0.145944		13.378239		1.573245		1.072679		719.785577		38.077793		-0.141137		0.000000		0.349514		0.009324		6.249137		0.330608		5.777914		-0.598859		-0.787419		0.353558		1.255113		1.891172		0.004768		-0.000494		-0.000650		-19.141498		0.865717		-2.459232		-0.288917		1.264842		1.901104		0.017468		-0.000790		0.002244		
1.315914		7.056532		704.378075		82.959070		0.077977		0.000000		0.332735		0.131588		13.134966		1.546988		-1.190914		722.184226		34.158032		-0.141423		0.000000		0.350215		-0.009070		5.503179		0.260303		5.687252		-0.735611		-0.784396		0.353516		1.255129		1.891196		0.004363		-0.000564		-0.000602		-19.045728		0.720749		-2.551087		-0.288936		1.264836		1.901122		0.013354		-0.000506		0.001789		
1.319222		5.845468		695.098608		82.746364		0.078075		0.000000		0.332409		0.107782		12.816441		1.525701		-2.292838		722.178609		30.877440		-0.141896		0.000000		0.350870		-0.015578		4.907237		0.209824		5.548853		-0.861507		-0.757315		0.353470		1.255148		1.891223		0.004720		-0.000733		-0.000644		-18.886381		0.560691		-2.672799		-0.288958		1.264830		1.901139		0.007735		-0.000230		0.001094		
